<svg id="Layer_1" data-name="Layer 1" xmlns="http://www.w3.org/2000/svg" viewBox="0 0 1667.44 894.1"><defs><style>.cls-1{fill:red;}.cls-2{fill:#fff;}</style></defs><rect class="cls-1" width="1667.44" height="894.1"/><path class="cls-2" d="M383.75,613.77q-21.11,0-34.75-14.38a47.72,47.72,0,0,1-13.67-34q0-21.09,13.67-35.23T383.75,516q20.61,0,34,14.15t13.43,35.23a48.17,48.17,0,0,1-13.43,34Q404.36,613.78,383.75,613.77Z"/><path class="cls-2" d="M480.09,608V258.57H564V608Z"/><path class="cls-2" d="M727.91,613.77q-37.38,0-67.11-16.29a122.35,122.35,0,0,1-46.73-44.35q-17-28-17-62.55,0-35.47,17-63t46.73-43.62q29.73-16.05,66.64-16.06,38.34,0,67.82,16.06a122.24,122.24,0,0,1,46.5,43.62q17,27.57,17,63,0,34.52-16.78,62.55t-46.5,44.35Q765.79,613.77,727.91,613.77ZM727.44,539q13.89,0,24.44-6.23a42.81,42.81,0,0,0,16.3-17q5.76-10.8,5.75-25.17t-6-25.17a43.41,43.41,0,0,0-16.3-16.78q-10.3-6-24.2-6a44.15,44.15,0,0,0-23.25,6.23,45,45,0,0,0-16.3,17q-6,10.78-6,25.17a50,50,0,0,0,6,24.69,45,45,0,0,0,16.3,17A44,44,0,0,0,727.44,539Z"/><path class="cls-2" d="M861.65,608l96.83-139,47.46,51.77L951.77,608Zm167.3,0-50.33-86.76-19.18-11-93-136.62h96.83l49.37,84.85,18.69,9.59,93.48,140Zm-1.44-98.27L980.05,458l50.82-84.37H1120Z"/><path class="cls-2" d="M1125.3,443.12V373.61h187v69.51ZM1176.59,608V276.78h83.88V608Z"/></svg>