<svg id="Layer_1" data-name="Layer 1" xmlns="http://www.w3.org/2000/svg" viewBox="0 0 1001.83 355.2"><defs><style>.cls-1{fill:red;}</style></defs><path class="cls-1" d="M73.34,355.2q-21.09,0-34.75-14.38a47.75,47.75,0,0,1-13.66-34q0-21.09,13.66-35.23t34.75-14.14q20.61,0,34,14.14t13.42,35.23a48.25,48.25,0,0,1-13.42,34Q94,355.21,73.34,355.2Z"/><path class="cls-1" d="M169.69,349.45V0h83.88V349.45Z"/><path class="cls-1" d="M417.51,355.2q-37.39,0-67.11-16.3a122.21,122.21,0,0,1-46.74-44.34q-17-28-17-62.56,0-35.46,17-63t46.74-43.62q29.72-16.06,66.63-16.06,38.34,0,67.83,16.06A122.28,122.28,0,0,1,531.35,169q17,27.57,17,63,0,34.51-16.78,62.56A120.54,120.54,0,0,1,485.1,338.9Q455.37,355.19,417.51,355.2ZM417,280.42q13.89,0,24.45-6.23a42.81,42.81,0,0,0,16.29-17q5.76-10.79,5.76-25.17t-6-25.16a43.45,43.45,0,0,0-16.29-16.78q-10.32-6-24.21-6a44.08,44.08,0,0,0-23.25,6.23,45,45,0,0,0-16.3,17q-6,10.78-6,25.16a49.9,49.9,0,0,0,6,24.69,45,45,0,0,0,16.3,17A44.08,44.08,0,0,0,417,280.42Z"/><path class="cls-1" d="M551.24,349.45l96.84-139,47.45,51.77-54.17,87.25Zm167.3,0-50.33-86.77-19.18-11L556,115h96.83l49.37,84.85,18.7,9.58,93.47,140Zm-1.44-98.27-47.45-51.77L720.46,115h89.16Z"/><path class="cls-1" d="M814.89,184.55V115h187v69.51Zm51.29,164.9V18.21h83.89V349.45Z"/></svg>